Coordinates
version=1
nRows=16
nColumns=40
inDegrees=yes

Units are S.I. units (second, meters, Newtons, ...)
Angles are in degrees.

endheader
time	pelvis_tilt	pelvis_list	pelvis_rotation	pelvis_tx	pelvis_ty	pelvis_tz	hip_flexion_r	hip_adduction_r	hip_rotation_r	knee_angle_r	knee_angle_r_beta	ankle_angle_r	subtalar_angle_r	mtp_angle_r	hip_flexion_l	hip_adduction_l	hip_rotation_l	knee_angle_l	knee_angle_l_beta	ankle_angle_l	subtalar_angle_l	mtp_angle_l	lumbar_extension	lumbar_bending	lumbar_rotation	arm_flex_r	arm_add_r	arm_rot_r	elbow_flex_r	pro_sup_r	wrist_flex_r	wrist_dev_r	arm_flex_l	arm_add_l	arm_rot_l	elbow_flex_l	pro_sup_l	wrist_flex_l	wrist_dev_l
      2.08000000	     -2.51258845	      0.15318539	      0.31704793	      0.38561245	      0.88741866	      1.02283479	     20.38861408	     -5.01623084	     -9.38788037	    -67.36380632	     -1.17572022	     -1.84633772	    -14.96665755	     15.22283285	     19.36772197	     -0.36819123	      9.28851989	    -31.34203236	     -0.54702166	     10.55412831	     10.49519457	      0.67734998	     -3.40784955	     -3.07251496	     -4.27542050	     -0.74767090	     -7.22731590	    -14.01096187	     26.37571149	     89.95437384	      0.00000000	      0.00000000	      0.94339265	     10.56116251	     22.57489382	     30.50079179	     89.95437384	      0.00000000	      0.00000000
      2.09000000	     -2.47231754	      0.01433893	      0.52393817	      0.39169770	      0.88777425	      1.02134606	     21.24000145	     -4.92899454	     -9.65495847	    -67.21290540	     -1.17308650	     -1.34117277	    -14.77323117	     14.95848470	     18.81865536	     -0.34752712	      9.27405201	    -31.21998204	     -0.54489148	     10.77326630	     10.40294382	      0.63830930	     -3.46411826	     -2.87240128	     -4.52569397	     -0.93724351	     -7.22696734	    -14.07692825	     26.16585101	     89.95437384	      0.00000000	      0.00000000	      1.22287076	     10.65777008	     22.63423041	     30.88263040	     89.95437384	      0.00000000	      0.00000000
      2.10000000	     -2.34430420	     -0.10214371	      0.75340539	      0.39766943	      0.88829023	      1.02001133	     21.90007837	     -4.70810625	     -9.75266547	    -66.76744410	     -1.16531173	     -0.34321341	    -14.74972536	     14.73319334	     18.12812304	     -0.41893016	      8.93543525	    -31.02183405	     -0.54143314	     11.19717892	     10.38956798	      0.55767206	     -3.64917596	     -2.72078287	     -4.82734905	     -0.94464890	     -7.17653658	    -14.32869321	     25.73097565	     89.95437384	      0.00000000	      0.00000000	      1.53397298	     10.72305033	     22.88834162	     31.27865032	     89.95437384	      0.00000000	      0.00000000
      2.11000000	     -2.23288176	     -0.21485324	      0.96895691	      0.40381260	      0.88871262	      1.01866634	     22.56953881	     -4.57213305	     -9.95129755	    -66.16705038	     -1.15483289	      0.18696265	    -14.59514093	     14.55178428	     17.45402887	     -0.42434118	      8.88583012	    -30.80815639	     -0.53770377	     11.57274160	     10.27761777	      0.47611677	     -3.79636375	     -2.56489562	     -5.08115908	     -1.07728023	     -7.16220004	    -14.50943784	     25.47683175	     89.95437384	      0.00000000	      0.00000000	      1.80447547	     10.78343326	     23.06919970	     31.70751617	     89.95437384	      0.00000000	      0.00000000
      2.12000000	     -2.28138283	     -0.26063978	      1.15319077	      0.40981457	      0.88885988	      1.01736191	     23.43154207	     -4.54702850	    -10.14876160	    -65.43603889	     -1.14207433	      0.51730299	    -14.41282310	     14.33111591	     16.97935708	     -0.44523049	      9.01123808	    -30.63054378	     -0.53460384	     11.73631076	     10.07476479	      0.43109223	     -3.76138876	     -2.49388785	     -5.30001796	     -1.29735560	     -7.16064234	    -14.55348017	     25.34386179	     89.95437384	      0.00000000	      0.00000000	      2.04516863	     10.88121826	     23.07322615	     32.11931395	     89.95437384	      0.00000000	      0.00000000
      2.13000000	     -2.35139701	     -0.27581279	      1.32492920	      0.41579606	      0.88891596	      1.01604277	     24.26429020	     -4.54883936	    -10.28912566	    -64.50562307	     -1.12583551	      0.92186905	    -14.32720499	     14.12384813	     16.51677975	     -0.49789365	      9.09979433	    -30.43604362	     -0.53120917	     11.92934928	      9.83623045	      0.37912316	     -3.70308776	     -2.42605937	     -5.49385931	     -1.49431432	     -7.18193247	    -14.61116419	     25.21781702	     89.95437384	      0.00000000	      0.00000000	      2.29213206	     10.96008584	     23.05608240	     32.53408994	     89.95437384	      0.00000000	      0.00000000
      2.14000000	     -1.96094486	     -0.41776174	      1.56949853	      0.42205472	      0.88977519	      1.01487203	     24.39127123	     -4.33080271	    -10.52940467	    -63.19195647	     -1.10290770	      1.52347401	    -14.75543591	     14.18822155	     15.37756524	     -0.44179524	      8.91195825	    -29.96391291	     -0.52296894	     12.29862123	      9.31315479	      0.16498329	     -4.18917693	     -2.23783638	     -5.83129623	     -1.44573720	     -7.11215353	    -15.00967431	     24.84617791	     89.95437384	      0.00000000	      0.00000000	      2.48636279	     11.02598387	     23.24957961	     33.16953394	     89.95437384	      0.00000000	      0.00000000
      2.15000000	     -2.07655203	     -0.41662296	      1.72622860	      0.42804625	      0.88967128	      1.01371229	     25.19311841	     -4.35414222	    -10.69478133	    -61.95412288	     -1.08130343	      2.06543965	    -14.81746229	     14.06665741	     14.91086474	     -0.49271459	      9.04649131	    -29.66384223	     -0.51773172	     12.52155783	      8.97855091	      0.06467084	     -4.07820674	     -2.21091500	     -6.03823418	     -1.63024286	     -7.12596439	    -15.02901830	     24.73943811	     89.95437384	      0.00000000	      0.00000000	      2.74667406	     11.14592760	     23.15841271	     33.50668150	     89.95437384	      0.00000000	      0.00000000
      2.16000000	     -2.19962715	     -0.37457072	      1.91034884	      0.43401956	      0.88953317	      1.01251539	     25.93008268	     -4.46576716	    -10.92992863	    -60.50351247	     -1.05598550	      2.48980703	    -14.89011879	     13.95891682	     14.48618277	     -0.58832584	      9.18824718	    -29.42212578	     -0.51351297	     12.69399307	      8.64436966	     -0.02092425	     -3.97278545	     -2.22181171	     -6.26359881	     -1.83692470	     -7.12557511	    -15.10061570	     24.69345856	     89.95437384	      0.00000000	      0.00000000	      2.91982325	     11.23140284	     23.10880707	     34.00802140	     89.95437384	      0.00000000	      0.00000000
      2.17000000	     -1.81957308	     -0.54257951	      2.14687413	      0.44047850	      0.89024272	      1.01151622	     25.86195918	     -4.28101082	    -11.30468617	    -58.60196647	     -1.02279726	      2.83943940	    -15.43148941	     14.43085020	     13.39037833	     -0.35682245	      9.40168209	    -29.04403549	     -0.50691405	     12.77033230	      7.71427194	     -0.43817663	     -4.43231912	     -2.00485233	     -6.53595544	     -1.92838082	     -7.10601337	    -15.37602579	     24.58058006	     89.95437384	      0.00000000	      0.00000000	      3.08319858	     11.30933501	     23.06975979	     34.66028255	     89.95437384	      0.00000000	      0.00000000
      2.18000000	     -1.96501672	     -0.51940049	      2.28561252	      0.44655317	      0.89000858	      1.01055198	     26.51477948	     -4.38189703	    -11.60608359	    -56.85714021	     -0.99234430	      3.29923720	    -15.56503021	     14.47635611	     12.95052158	     -0.42181812	      9.42334469	    -28.77149870	     -0.50215738	     13.00464214	      7.27997629	     -0.59790443	     -4.29316072	     -2.01360034	     -6.72501089	     -2.09970719	     -7.09008895	    -15.51343610	     24.46313201	     89.95437384	      0.00000000	      0.00000000	      3.23035297	     11.42870656	     22.95949799	     35.12860070	     89.95437384	      0.00000000	      0.00000000
      2.19000000	     -2.22484294	     -0.33769331	      2.41710913	      0.45251832	      0.88946175	      1.00936706	     27.31456608	     -4.77469823	    -11.97842123	    -55.12587131	     -0.96212796	      3.47409134	    -15.38859401	     14.36538646	     12.72767849	     -0.63292545	      9.76454473	    -28.65253838	     -0.50008113	     13.09249697	      7.08409525	     -0.64213988	     -4.04149559	     -2.16852380	     -6.82980789	     -2.41063493	     -7.12914413	    -15.53699645	     24.55419413	     89.95437384	      0.00000000	      0.00000000	      3.45491212	     11.47287211	     22.87384965	     35.57211008	     89.95437384	      0.00000000	      0.00000000
      2.20000000	     -2.47299290	     -0.18305061	      2.54593965	      0.45858944	      0.88894624	      1.00835735	     28.01013346	     -5.08145266	    -12.33950367	    -53.20421081	     -0.92858865	      3.70249421	    -15.35233783	     14.31589033	     12.42829230	     -0.83250641	      9.98991554	    -28.44100023	     -0.49638910	     13.28617497	      6.86491732	     -0.69926906	     -3.79512297	     -2.30835369	     -6.97863338	     -2.66436301	     -7.14702923	    -15.61594518	     24.60035739	     89.95437384	      0.00000000	      0.00000000	      3.63648316	     11.55653179	     22.78754642	     35.97468682	     89.95437384	      0.00000000	      0.00000000
      2.21000000	     -2.05956512	     -0.56890801	      2.97940898	      0.46494710	      0.88963293	      1.00748777	     27.61540777	     -4.71763310	    -12.98886795	    -50.66926992	     -0.88434559	      3.70076802	    -16.11258062	     14.90500560	     11.28983807	     -0.49042766	      9.42179263	    -27.95393592	     -0.48788822	     13.62746652	      6.16589083	     -0.96780502	     -4.33201763	     -1.84105204	     -7.48967305	     -2.59687137	     -7.04766048	    -16.16427530	     24.40017842	     89.95437384	      0.00000000	      0.00000000	      3.69659906	     11.67224623	     22.63251402	     36.67089247	     89.95437384	      0.00000000	      0.00000000
      2.22000000	     -2.30711354	     -0.36901921	      3.10039796	      0.47101204	      0.88899850	      1.00662583	     28.23753951	     -5.08169194	    -13.35113571	    -48.60644431	     -0.84834249	      3.83958192	    -15.94920933	     14.93541914	     11.03642779	     -0.68922254	      9.78397386	    -27.81832742	     -0.48552141	     13.76661410	      5.91797976	     -1.05056732	     -4.10749871	     -2.04009999	     -7.65603126	     -2.87120953	     -7.02945589	    -16.28693706	     24.55887554	     89.95437384	      0.00000000	      0.00000000	      3.84960924	     11.77871409	     22.54003102	     37.04082962	     89.95437384	      0.00000000	      0.00000000
      2.23000000	     -2.01212838	     -0.59243009	      3.37432741	      0.47749304	      0.88930431	      1.00597401	     27.97954799	     -4.93314074	    -14.06066918	    -46.04580458	     -0.80365090	      3.60427556	    -16.17318400	     15.74605873	     10.13156856	     -0.39252467	      9.79820801	    -27.56224599	     -0.48105194	     13.91642948	      5.19486519	     -1.41876448	     -4.47580222	     -1.75053729	     -7.88645027	     -2.98184342	     -6.95768342	    -16.84391292	     24.52299660	     89.95437384	      0.00000000	      0.00000000	      4.06346069	     11.85946007	     22.34596249	     37.49581929	     89.95437384	      0.00000000	      0.00000000
